<mxfile host="app.diagrams.net" agent="Mozilla/5.0 (Windows NT 10.0; Win64; x64) AppleWebKit/537.36 (KHTML, like Gecko) Chrome/129.0.0.0 Safari/537.36" version="24.7.17">
  <diagram name="Страница — 1" id="4j5skGVOsrsPlxVMQiAT">
    <mxGraphModel dx="1783" dy="2851" grid="1" gridSize="10" guides="1" tooltips="1" connect="1" arrows="1" fold="1" page="1" pageScale="1" pageWidth="827" pageHeight="1169" math="0" shadow="0">
      <root>
        <mxCell id="0" />
        <mxCell id="1" parent="0" />
        <mxCell id="xTbCGkDFSXypvoG6kdAG-1" value="" style="rounded=0;whiteSpace=wrap;html=1;fillColor=default;" vertex="1" parent="1">
          <mxGeometry x="-380" y="-1880" width="1380" height="1780" as="geometry" />
        </mxCell>
        <mxCell id="xTbCGkDFSXypvoG6kdAG-2" value="Warehouses" style="swimlane;fontStyle=0;childLayout=stackLayout;horizontal=1;startSize=30;horizontalStack=0;resizeParent=1;resizeParentMax=0;resizeLast=0;collapsible=1;marginBottom=0;whiteSpace=wrap;html=1;" vertex="1" parent="1">
          <mxGeometry x="-220" y="-1280" width="190" height="180" as="geometry" />
        </mxCell>
        <mxCell id="xTbCGkDFSXypvoG6kdAG-3" value="id [serial]" style="text;strokeColor=none;fillColor=none;align=left;verticalAlign=middle;spacingLeft=4;spacingRight=4;overflow=hidden;points=[[0,0.5],[1,0.5]];portConstraint=eastwest;rotatable=0;whiteSpace=wrap;html=1;" vertex="1" parent="xTbCGkDFSXypvoG6kdAG-2">
          <mxGeometry y="30" width="190" height="30" as="geometry" />
        </mxCell>
        <mxCell id="xTbCGkDFSXypvoG6kdAG-4" value="name [varchar]" style="text;strokeColor=none;fillColor=none;align=left;verticalAlign=middle;spacingLeft=4;spacingRight=4;overflow=hidden;points=[[0,0.5],[1,0.5]];portConstraint=eastwest;rotatable=0;whiteSpace=wrap;html=1;" vertex="1" parent="xTbCGkDFSXypvoG6kdAG-2">
          <mxGeometry y="60" width="190" height="30" as="geometry" />
        </mxCell>
        <mxCell id="xTbCGkDFSXypvoG6kdAG-5" value="phone [varchar]" style="text;strokeColor=none;fillColor=none;align=left;verticalAlign=middle;spacingLeft=4;spacingRight=4;overflow=hidden;points=[[0,0.5],[1,0.5]];portConstraint=eastwest;rotatable=0;whiteSpace=wrap;html=1;" vertex="1" parent="xTbCGkDFSXypvoG6kdAG-2">
          <mxGeometry y="90" width="190" height="30" as="geometry" />
        </mxCell>
        <mxCell id="xTbCGkDFSXypvoG6kdAG-6" value="email [varchar]" style="text;strokeColor=none;fillColor=none;align=left;verticalAlign=middle;spacingLeft=4;spacingRight=4;overflow=hidden;points=[[0,0.5],[1,0.5]];portConstraint=eastwest;rotatable=0;whiteSpace=wrap;html=1;" vertex="1" parent="xTbCGkDFSXypvoG6kdAG-2">
          <mxGeometry y="120" width="190" height="30" as="geometry" />
        </mxCell>
        <mxCell id="xTbCGkDFSXypvoG6kdAG-7" value="address [varchar]" style="text;strokeColor=none;fillColor=none;align=left;verticalAlign=middle;spacingLeft=4;spacingRight=4;overflow=hidden;points=[[0,0.5],[1,0.5]];portConstraint=eastwest;rotatable=0;whiteSpace=wrap;html=1;" vertex="1" parent="xTbCGkDFSXypvoG6kdAG-2">
          <mxGeometry y="150" width="190" height="30" as="geometry" />
        </mxCell>
        <mxCell id="xTbCGkDFSXypvoG6kdAG-8" value="Items" style="swimlane;fontStyle=0;childLayout=stackLayout;horizontal=1;startSize=30;horizontalStack=0;resizeParent=1;resizeParentMax=0;resizeLast=0;collapsible=1;marginBottom=0;whiteSpace=wrap;html=1;" vertex="1" parent="1">
          <mxGeometry x="130" y="-1310" width="160" height="270" as="geometry" />
        </mxCell>
        <mxCell id="xTbCGkDFSXypvoG6kdAG-9" value="id [serial]" style="text;strokeColor=none;fillColor=none;align=left;verticalAlign=middle;spacingLeft=4;spacingRight=4;overflow=hidden;points=[[0,0.5],[1,0.5]];portConstraint=eastwest;rotatable=0;whiteSpace=wrap;html=1;" vertex="1" parent="xTbCGkDFSXypvoG6kdAG-8">
          <mxGeometry y="30" width="160" height="30" as="geometry" />
        </mxCell>
        <mxCell id="xTbCGkDFSXypvoG6kdAG-10" value="warehouse_id [int]" style="text;strokeColor=none;fillColor=none;align=left;verticalAlign=middle;spacingLeft=4;spacingRight=4;overflow=hidden;points=[[0,0.5],[1,0.5]];portConstraint=eastwest;rotatable=0;whiteSpace=wrap;html=1;" vertex="1" parent="xTbCGkDFSXypvoG6kdAG-8">
          <mxGeometry y="60" width="160" height="30" as="geometry" />
        </mxCell>
        <mxCell id="xTbCGkDFSXypvoG6kdAG-11" value="name [varchar]" style="text;strokeColor=none;fillColor=none;align=left;verticalAlign=middle;spacingLeft=4;spacingRight=4;overflow=hidden;points=[[0,0.5],[1,0.5]];portConstraint=eastwest;rotatable=0;whiteSpace=wrap;html=1;" vertex="1" parent="xTbCGkDFSXypvoG6kdAG-8">
          <mxGeometry y="90" width="160" height="30" as="geometry" />
        </mxCell>
        <mxCell id="xTbCGkDFSXypvoG6kdAG-12" value="description [text]" style="text;strokeColor=none;fillColor=none;align=left;verticalAlign=middle;spacingLeft=4;spacingRight=4;overflow=hidden;points=[[0,0.5],[1,0.5]];portConstraint=eastwest;rotatable=0;whiteSpace=wrap;html=1;" vertex="1" parent="xTbCGkDFSXypvoG6kdAG-8">
          <mxGeometry y="120" width="160" height="30" as="geometry" />
        </mxCell>
        <mxCell id="xTbCGkDFSXypvoG6kdAG-13" value="quantity [int]" style="text;strokeColor=none;fillColor=none;align=left;verticalAlign=middle;spacingLeft=4;spacingRight=4;overflow=hidden;points=[[0,0.5],[1,0.5]];portConstraint=eastwest;rotatable=0;whiteSpace=wrap;html=1;" vertex="1" parent="xTbCGkDFSXypvoG6kdAG-8">
          <mxGeometry y="150" width="160" height="30" as="geometry" />
        </mxCell>
        <mxCell id="xTbCGkDFSXypvoG6kdAG-14" value="price [decimal]" style="text;strokeColor=none;fillColor=none;align=left;verticalAlign=middle;spacingLeft=4;spacingRight=4;overflow=hidden;points=[[0,0.5],[1,0.5]];portConstraint=eastwest;rotatable=0;whiteSpace=wrap;html=1;" vertex="1" parent="xTbCGkDFSXypvoG6kdAG-8">
          <mxGeometry y="180" width="160" height="30" as="geometry" />
        </mxCell>
        <mxCell id="xTbCGkDFSXypvoG6kdAG-15" value="late_penalty [decimal]" style="text;strokeColor=none;fillColor=none;align=left;verticalAlign=middle;spacingLeft=4;spacingRight=4;overflow=hidden;points=[[0,0.5],[1,0.5]];portConstraint=eastwest;rotatable=0;whiteSpace=wrap;html=1;" vertex="1" parent="xTbCGkDFSXypvoG6kdAG-8">
          <mxGeometry y="210" width="160" height="30" as="geometry" />
        </mxCell>
        <mxCell id="xTbCGkDFSXypvoG6kdAG-16" value="available_for_rent [boolean]" style="text;strokeColor=none;fillColor=none;align=left;verticalAlign=middle;spacingLeft=4;spacingRight=4;overflow=hidden;points=[[0,0.5],[1,0.5]];portConstraint=eastwest;rotatable=0;whiteSpace=wrap;html=1;" vertex="1" parent="xTbCGkDFSXypvoG6kdAG-8">
          <mxGeometry y="240" width="160" height="30" as="geometry" />
        </mxCell>
        <mxCell id="xTbCGkDFSXypvoG6kdAG-17" value="" style="endArrow=classic;html=1;rounded=0;exitX=0;exitY=0.5;exitDx=0;exitDy=0;entryX=1;entryY=0.5;entryDx=0;entryDy=0;" edge="1" parent="1" source="xTbCGkDFSXypvoG6kdAG-10" target="xTbCGkDFSXypvoG6kdAG-3">
          <mxGeometry width="50" height="50" relative="1" as="geometry">
            <mxPoint y="-1210" as="sourcePoint" />
            <mxPoint x="50" y="-1260" as="targetPoint" />
          </mxGeometry>
        </mxCell>
        <mxCell id="xTbCGkDFSXypvoG6kdAG-18" value="WarehouseOrders" style="swimlane;fontStyle=0;childLayout=stackLayout;horizontal=1;startSize=30;horizontalStack=0;resizeParent=1;resizeParentMax=0;resizeLast=0;collapsible=1;marginBottom=0;whiteSpace=wrap;html=1;" vertex="1" parent="1">
          <mxGeometry x="-220" y="-1510" width="190" height="150" as="geometry" />
        </mxCell>
        <mxCell id="xTbCGkDFSXypvoG6kdAG-19" value="id [serial]" style="text;strokeColor=none;fillColor=none;align=left;verticalAlign=middle;spacingLeft=4;spacingRight=4;overflow=hidden;points=[[0,0.5],[1,0.5]];portConstraint=eastwest;rotatable=0;whiteSpace=wrap;html=1;" vertex="1" parent="xTbCGkDFSXypvoG6kdAG-18">
          <mxGeometry y="30" width="190" height="30" as="geometry" />
        </mxCell>
        <mxCell id="xTbCGkDFSXypvoG6kdAG-20" value="item_id [int]" style="text;strokeColor=none;fillColor=none;align=left;verticalAlign=middle;spacingLeft=4;spacingRight=4;overflow=hidden;points=[[0,0.5],[1,0.5]];portConstraint=eastwest;rotatable=0;whiteSpace=wrap;html=1;" vertex="1" parent="xTbCGkDFSXypvoG6kdAG-18">
          <mxGeometry y="60" width="190" height="30" as="geometry" />
        </mxCell>
        <mxCell id="xTbCGkDFSXypvoG6kdAG-21" value="destination_warehouse_id [int]" style="text;strokeColor=none;fillColor=none;align=left;verticalAlign=middle;spacingLeft=4;spacingRight=4;overflow=hidden;points=[[0,0.5],[1,0.5]];portConstraint=eastwest;rotatable=0;whiteSpace=wrap;html=1;" vertex="1" parent="xTbCGkDFSXypvoG6kdAG-18">
          <mxGeometry y="90" width="190" height="30" as="geometry" />
        </mxCell>
        <mxCell id="xTbCGkDFSXypvoG6kdAG-22" value="status [enum] = request" style="text;strokeColor=none;fillColor=none;align=left;verticalAlign=middle;spacingLeft=4;spacingRight=4;overflow=hidden;points=[[0,0.5],[1,0.5]];portConstraint=eastwest;rotatable=0;whiteSpace=wrap;html=1;" vertex="1" parent="xTbCGkDFSXypvoG6kdAG-18">
          <mxGeometry y="120" width="190" height="30" as="geometry" />
        </mxCell>
        <mxCell id="xTbCGkDFSXypvoG6kdAG-23" value="WarehouseOrdersHistory" style="swimlane;fontStyle=0;childLayout=stackLayout;horizontal=1;startSize=30;horizontalStack=0;resizeParent=1;resizeParentMax=0;resizeLast=0;collapsible=1;marginBottom=0;whiteSpace=wrap;html=1;" vertex="1" parent="1">
          <mxGeometry x="-220" y="-1800" width="190" height="210" as="geometry" />
        </mxCell>
        <mxCell id="xTbCGkDFSXypvoG6kdAG-24" value="id [serial]" style="text;strokeColor=none;fillColor=none;align=left;verticalAlign=middle;spacingLeft=4;spacingRight=4;overflow=hidden;points=[[0,0.5],[1,0.5]];portConstraint=eastwest;rotatable=0;whiteSpace=wrap;html=1;" vertex="1" parent="xTbCGkDFSXypvoG6kdAG-23">
          <mxGeometry y="30" width="190" height="30" as="geometry" />
        </mxCell>
        <mxCell id="xTbCGkDFSXypvoG6kdAG-25" value="item_id [int]" style="text;strokeColor=none;fillColor=none;align=left;verticalAlign=middle;spacingLeft=4;spacingRight=4;overflow=hidden;points=[[0,0.5],[1,0.5]];portConstraint=eastwest;rotatable=0;whiteSpace=wrap;html=1;" vertex="1" parent="xTbCGkDFSXypvoG6kdAG-23">
          <mxGeometry y="60" width="190" height="30" as="geometry" />
        </mxCell>
        <mxCell id="xTbCGkDFSXypvoG6kdAG-26" value="source_warehouse_id [int]" style="text;strokeColor=none;fillColor=none;align=left;verticalAlign=middle;spacingLeft=4;spacingRight=4;overflow=hidden;points=[[0,0.5],[1,0.5]];portConstraint=eastwest;rotatable=0;whiteSpace=wrap;html=1;" vertex="1" parent="xTbCGkDFSXypvoG6kdAG-23">
          <mxGeometry y="90" width="190" height="30" as="geometry" />
        </mxCell>
        <mxCell id="xTbCGkDFSXypvoG6kdAG-27" value="destination_warehouse_id [int]" style="text;strokeColor=none;fillColor=none;align=left;verticalAlign=middle;spacingLeft=4;spacingRight=4;overflow=hidden;points=[[0,0.5],[1,0.5]];portConstraint=eastwest;rotatable=0;whiteSpace=wrap;html=1;" vertex="1" parent="xTbCGkDFSXypvoG6kdAG-23">
          <mxGeometry y="120" width="190" height="30" as="geometry" />
        </mxCell>
        <mxCell id="xTbCGkDFSXypvoG6kdAG-28" value="sending_time [timestamp] NULL" style="text;strokeColor=none;fillColor=none;align=left;verticalAlign=middle;spacingLeft=4;spacingRight=4;overflow=hidden;points=[[0,0.5],[1,0.5]];portConstraint=eastwest;rotatable=0;whiteSpace=wrap;html=1;" vertex="1" parent="xTbCGkDFSXypvoG6kdAG-23">
          <mxGeometry y="150" width="190" height="30" as="geometry" />
        </mxCell>
        <mxCell id="xTbCGkDFSXypvoG6kdAG-29" value="receiving_time [timestamp] NULL" style="text;strokeColor=none;fillColor=none;align=left;verticalAlign=middle;spacingLeft=4;spacingRight=4;overflow=hidden;points=[[0,0.5],[1,0.5]];portConstraint=eastwest;rotatable=0;whiteSpace=wrap;html=1;" vertex="1" parent="xTbCGkDFSXypvoG6kdAG-23">
          <mxGeometry y="180" width="190" height="30" as="geometry" />
        </mxCell>
        <mxCell id="xTbCGkDFSXypvoG6kdAG-30" value="" style="endArrow=classic;html=1;rounded=0;exitX=0;exitY=0.5;exitDx=0;exitDy=0;entryX=0;entryY=0.5;entryDx=0;entryDy=0;" edge="1" parent="1" source="xTbCGkDFSXypvoG6kdAG-21" target="xTbCGkDFSXypvoG6kdAG-3">
          <mxGeometry width="50" height="50" relative="1" as="geometry">
            <mxPoint x="-330" y="-1350" as="sourcePoint" />
            <mxPoint x="-280" y="-1400" as="targetPoint" />
            <Array as="points">
              <mxPoint x="-300" y="-1405" />
              <mxPoint x="-300" y="-1235" />
            </Array>
          </mxGeometry>
        </mxCell>
        <mxCell id="xTbCGkDFSXypvoG6kdAG-31" value="" style="endArrow=classic;html=1;rounded=0;exitX=0;exitY=0.5;exitDx=0;exitDy=0;entryX=0;entryY=0.5;entryDx=0;entryDy=0;" edge="1" parent="1" source="xTbCGkDFSXypvoG6kdAG-26" target="xTbCGkDFSXypvoG6kdAG-3">
          <mxGeometry width="50" height="50" relative="1" as="geometry">
            <mxPoint x="-390" y="-1550" as="sourcePoint" />
            <mxPoint x="-340" y="-1600" as="targetPoint" />
            <Array as="points">
              <mxPoint x="-300" y="-1695" />
              <mxPoint x="-300" y="-1235" />
            </Array>
          </mxGeometry>
        </mxCell>
        <mxCell id="xTbCGkDFSXypvoG6kdAG-32" value="" style="endArrow=classic;html=1;rounded=0;exitX=0;exitY=0.5;exitDx=0;exitDy=0;entryX=0;entryY=0.5;entryDx=0;entryDy=0;" edge="1" parent="1" source="xTbCGkDFSXypvoG6kdAG-27" target="xTbCGkDFSXypvoG6kdAG-3">
          <mxGeometry width="50" height="50" relative="1" as="geometry">
            <mxPoint x="-350" y="-1510" as="sourcePoint" />
            <mxPoint x="-300" y="-1560" as="targetPoint" />
            <Array as="points">
              <mxPoint x="-300" y="-1665" />
              <mxPoint x="-300" y="-1235" />
            </Array>
          </mxGeometry>
        </mxCell>
        <mxCell id="xTbCGkDFSXypvoG6kdAG-33" value="" style="endArrow=classic;html=1;rounded=0;exitX=1;exitY=0.5;exitDx=0;exitDy=0;entryX=0;entryY=0.5;entryDx=0;entryDy=0;" edge="1" parent="1" source="xTbCGkDFSXypvoG6kdAG-20" target="xTbCGkDFSXypvoG6kdAG-9">
          <mxGeometry width="50" height="50" relative="1" as="geometry">
            <mxPoint x="50" y="-1430" as="sourcePoint" />
            <mxPoint x="100" y="-1480" as="targetPoint" />
            <Array as="points">
              <mxPoint x="50" y="-1435" />
              <mxPoint x="50" y="-1265" />
            </Array>
          </mxGeometry>
        </mxCell>
        <mxCell id="xTbCGkDFSXypvoG6kdAG-34" value="" style="endArrow=classic;html=1;rounded=0;entryX=0;entryY=0.5;entryDx=0;entryDy=0;exitX=1;exitY=0.5;exitDx=0;exitDy=0;" edge="1" parent="1" source="xTbCGkDFSXypvoG6kdAG-25" target="xTbCGkDFSXypvoG6kdAG-9">
          <mxGeometry width="50" height="50" relative="1" as="geometry">
            <mxPoint x="50" y="-1650" as="sourcePoint" />
            <mxPoint x="100" y="-1700" as="targetPoint" />
            <Array as="points">
              <mxPoint x="50" y="-1725" />
              <mxPoint x="50" y="-1265" />
            </Array>
          </mxGeometry>
        </mxCell>
        <mxCell id="xTbCGkDFSXypvoG6kdAG-35" value="ItemsInfo" style="swimlane;fontStyle=0;childLayout=stackLayout;horizontal=1;startSize=30;horizontalStack=0;resizeParent=1;resizeParentMax=0;resizeLast=0;collapsible=1;marginBottom=0;whiteSpace=wrap;html=1;" vertex="1" parent="1">
          <mxGeometry x="450" y="-1770" width="160" height="120" as="geometry" />
        </mxCell>
        <mxCell id="xTbCGkDFSXypvoG6kdAG-36" value="id [serial]" style="text;strokeColor=none;fillColor=none;align=left;verticalAlign=middle;spacingLeft=4;spacingRight=4;overflow=hidden;points=[[0,0.5],[1,0.5]];portConstraint=eastwest;rotatable=0;whiteSpace=wrap;html=1;" vertex="1" parent="xTbCGkDFSXypvoG6kdAG-35">
          <mxGeometry y="30" width="160" height="30" as="geometry" />
        </mxCell>
        <mxCell id="xTbCGkDFSXypvoG6kdAG-37" value="created_at [timestamp]" style="text;strokeColor=none;fillColor=none;align=left;verticalAlign=middle;spacingLeft=4;spacingRight=4;overflow=hidden;points=[[0,0.5],[1,0.5]];portConstraint=eastwest;rotatable=0;whiteSpace=wrap;html=1;" vertex="1" parent="xTbCGkDFSXypvoG6kdAG-35">
          <mxGeometry y="60" width="160" height="30" as="geometry" />
        </mxCell>
        <mxCell id="xTbCGkDFSXypvoG6kdAG-38" value="created_by [varchar]" style="text;strokeColor=none;fillColor=none;align=left;verticalAlign=middle;spacingLeft=4;spacingRight=4;overflow=hidden;points=[[0,0.5],[1,0.5]];portConstraint=eastwest;rotatable=0;whiteSpace=wrap;html=1;" vertex="1" parent="xTbCGkDFSXypvoG6kdAG-35">
          <mxGeometry y="90" width="160" height="30" as="geometry" />
        </mxCell>
        <mxCell id="xTbCGkDFSXypvoG6kdAG-39" value="" style="endArrow=classic;startArrow=classic;html=1;rounded=0;exitX=1;exitY=0.5;exitDx=0;exitDy=0;entryX=0;entryY=0.5;entryDx=0;entryDy=0;" edge="1" parent="1" source="xTbCGkDFSXypvoG6kdAG-9" target="xTbCGkDFSXypvoG6kdAG-36">
          <mxGeometry width="50" height="50" relative="1" as="geometry">
            <mxPoint x="300" y="-1410" as="sourcePoint" />
            <mxPoint x="350" y="-1670" as="targetPoint" />
            <Array as="points">
              <mxPoint x="370" y="-1265" />
              <mxPoint x="370" y="-1725" />
            </Array>
          </mxGeometry>
        </mxCell>
        <mxCell id="xTbCGkDFSXypvoG6kdAG-40" value="ItemsServiceHistory" style="swimlane;fontStyle=0;childLayout=stackLayout;horizontal=1;startSize=30;horizontalStack=0;resizeParent=1;resizeParentMax=0;resizeLast=0;collapsible=1;marginBottom=0;whiteSpace=wrap;html=1;" vertex="1" parent="1">
          <mxGeometry x="450" y="-1570" width="160" height="180" as="geometry" />
        </mxCell>
        <mxCell id="xTbCGkDFSXypvoG6kdAG-41" value="id [serial]" style="text;strokeColor=none;fillColor=none;align=left;verticalAlign=middle;spacingLeft=4;spacingRight=4;overflow=hidden;points=[[0,0.5],[1,0.5]];portConstraint=eastwest;rotatable=0;whiteSpace=wrap;html=1;" vertex="1" parent="xTbCGkDFSXypvoG6kdAG-40">
          <mxGeometry y="30" width="160" height="30" as="geometry" />
        </mxCell>
        <mxCell id="xTbCGkDFSXypvoG6kdAG-42" value="item_id [int]" style="text;strokeColor=none;fillColor=none;align=left;verticalAlign=middle;spacingLeft=4;spacingRight=4;overflow=hidden;points=[[0,0.5],[1,0.5]];portConstraint=eastwest;rotatable=0;whiteSpace=wrap;html=1;" vertex="1" parent="xTbCGkDFSXypvoG6kdAG-40">
          <mxGeometry y="60" width="160" height="30" as="geometry" />
        </mxCell>
        <mxCell id="xTbCGkDFSXypvoG6kdAG-43" value="old_quantity [int]" style="text;strokeColor=none;fillColor=none;align=left;verticalAlign=middle;spacingLeft=4;spacingRight=4;overflow=hidden;points=[[0,0.5],[1,0.5]];portConstraint=eastwest;rotatable=0;whiteSpace=wrap;html=1;" vertex="1" parent="xTbCGkDFSXypvoG6kdAG-40">
          <mxGeometry y="90" width="160" height="30" as="geometry" />
        </mxCell>
        <mxCell id="xTbCGkDFSXypvoG6kdAG-44" value="new&lt;span style=&quot;background-color: initial;&quot;&gt;_quantity [int]&lt;/span&gt;" style="text;strokeColor=none;fillColor=none;align=left;verticalAlign=middle;spacingLeft=4;spacingRight=4;overflow=hidden;points=[[0,0.5],[1,0.5]];portConstraint=eastwest;rotatable=0;whiteSpace=wrap;html=1;" vertex="1" parent="xTbCGkDFSXypvoG6kdAG-40">
          <mxGeometry y="120" width="160" height="30" as="geometry" />
        </mxCell>
        <mxCell id="xTbCGkDFSXypvoG6kdAG-45" value="change_reason text" style="text;strokeColor=none;fillColor=none;align=left;verticalAlign=middle;spacingLeft=4;spacingRight=4;overflow=hidden;points=[[0,0.5],[1,0.5]];portConstraint=eastwest;rotatable=0;whiteSpace=wrap;html=1;" vertex="1" parent="xTbCGkDFSXypvoG6kdAG-40">
          <mxGeometry y="150" width="160" height="30" as="geometry" />
        </mxCell>
        <mxCell id="xTbCGkDFSXypvoG6kdAG-48" value="" style="endArrow=classic;html=1;rounded=0;exitX=0;exitY=0.5;exitDx=0;exitDy=0;entryX=1;entryY=0.5;entryDx=0;entryDy=0;" edge="1" parent="1" source="xTbCGkDFSXypvoG6kdAG-42" target="xTbCGkDFSXypvoG6kdAG-9">
          <mxGeometry width="50" height="50" relative="1" as="geometry">
            <mxPoint x="260" y="-1460" as="sourcePoint" />
            <mxPoint x="310" y="-1510" as="targetPoint" />
            <Array as="points">
              <mxPoint x="370" y="-1495" />
              <mxPoint x="370" y="-1265" />
            </Array>
          </mxGeometry>
        </mxCell>
        <mxCell id="xTbCGkDFSXypvoG6kdAG-49" value="ItemsCategories" style="swimlane;fontStyle=0;childLayout=stackLayout;horizontal=1;startSize=30;horizontalStack=0;resizeParent=1;resizeParentMax=0;resizeLast=0;collapsible=1;marginBottom=0;whiteSpace=wrap;html=1;" vertex="1" parent="1">
          <mxGeometry x="450" y="-1310" width="160" height="90" as="geometry" />
        </mxCell>
        <mxCell id="xTbCGkDFSXypvoG6kdAG-50" value="item_id [int]" style="text;strokeColor=none;fillColor=none;align=left;verticalAlign=middle;spacingLeft=4;spacingRight=4;overflow=hidden;points=[[0,0.5],[1,0.5]];portConstraint=eastwest;rotatable=0;whiteSpace=wrap;html=1;" vertex="1" parent="xTbCGkDFSXypvoG6kdAG-49">
          <mxGeometry y="30" width="160" height="30" as="geometry" />
        </mxCell>
        <mxCell id="xTbCGkDFSXypvoG6kdAG-51" value="category_id [int]" style="text;strokeColor=none;fillColor=none;align=left;verticalAlign=middle;spacingLeft=4;spacingRight=4;overflow=hidden;points=[[0,0.5],[1,0.5]];portConstraint=eastwest;rotatable=0;whiteSpace=wrap;html=1;" vertex="1" parent="xTbCGkDFSXypvoG6kdAG-49">
          <mxGeometry y="60" width="160" height="30" as="geometry" />
        </mxCell>
        <mxCell id="xTbCGkDFSXypvoG6kdAG-52" value="Categories" style="swimlane;fontStyle=0;childLayout=stackLayout;horizontal=1;startSize=30;horizontalStack=0;resizeParent=1;resizeParentMax=0;resizeLast=0;collapsible=1;marginBottom=0;whiteSpace=wrap;html=1;" vertex="1" parent="1">
          <mxGeometry x="770" y="-1310" width="150" height="90" as="geometry" />
        </mxCell>
        <mxCell id="xTbCGkDFSXypvoG6kdAG-53" value="id [serial]" style="text;strokeColor=none;fillColor=none;align=left;verticalAlign=middle;spacingLeft=4;spacingRight=4;overflow=hidden;points=[[0,0.5],[1,0.5]];portConstraint=eastwest;rotatable=0;whiteSpace=wrap;html=1;" vertex="1" parent="xTbCGkDFSXypvoG6kdAG-52">
          <mxGeometry y="30" width="150" height="30" as="geometry" />
        </mxCell>
        <mxCell id="xTbCGkDFSXypvoG6kdAG-54" value="category_name [varchar]" style="text;strokeColor=none;fillColor=none;align=left;verticalAlign=middle;spacingLeft=4;spacingRight=4;overflow=hidden;points=[[0,0.5],[1,0.5]];portConstraint=eastwest;rotatable=0;whiteSpace=wrap;html=1;" vertex="1" parent="xTbCGkDFSXypvoG6kdAG-52">
          <mxGeometry y="60" width="150" height="30" as="geometry" />
        </mxCell>
        <mxCell id="xTbCGkDFSXypvoG6kdAG-55" value="" style="endArrow=classic;html=1;rounded=0;entryX=1;entryY=0.5;entryDx=0;entryDy=0;exitX=0;exitY=0.5;exitDx=0;exitDy=0;" edge="1" parent="1" source="xTbCGkDFSXypvoG6kdAG-50" target="xTbCGkDFSXypvoG6kdAG-9">
          <mxGeometry width="50" height="50" relative="1" as="geometry">
            <mxPoint x="340" y="-1170" as="sourcePoint" />
            <mxPoint x="390" y="-1220" as="targetPoint" />
          </mxGeometry>
        </mxCell>
        <mxCell id="xTbCGkDFSXypvoG6kdAG-56" value="" style="endArrow=classic;html=1;rounded=0;entryX=0;entryY=0.5;entryDx=0;entryDy=0;exitX=1;exitY=0.5;exitDx=0;exitDy=0;" edge="1" parent="1" source="xTbCGkDFSXypvoG6kdAG-51" target="xTbCGkDFSXypvoG6kdAG-53">
          <mxGeometry width="50" height="50" relative="1" as="geometry">
            <mxPoint x="650" y="-1220" as="sourcePoint" />
            <mxPoint x="700" y="-1270" as="targetPoint" />
            <Array as="points">
              <mxPoint x="690" y="-1235" />
              <mxPoint x="690" y="-1265" />
            </Array>
          </mxGeometry>
        </mxCell>
        <mxCell id="xTbCGkDFSXypvoG6kdAG-57" value="ItemsDiscounts" style="swimlane;fontStyle=0;childLayout=stackLayout;horizontal=1;startSize=30;horizontalStack=0;resizeParent=1;resizeParentMax=0;resizeLast=0;collapsible=1;marginBottom=0;whiteSpace=wrap;html=1;" vertex="1" parent="1">
          <mxGeometry x="450" y="-1140" width="160" height="90" as="geometry" />
        </mxCell>
        <mxCell id="xTbCGkDFSXypvoG6kdAG-58" value="item_id [int]" style="text;strokeColor=none;fillColor=none;align=left;verticalAlign=middle;spacingLeft=4;spacingRight=4;overflow=hidden;points=[[0,0.5],[1,0.5]];portConstraint=eastwest;rotatable=0;whiteSpace=wrap;html=1;" vertex="1" parent="xTbCGkDFSXypvoG6kdAG-57">
          <mxGeometry y="30" width="160" height="30" as="geometry" />
        </mxCell>
        <mxCell id="xTbCGkDFSXypvoG6kdAG-59" value="discount_id [int]" style="text;strokeColor=none;fillColor=none;align=left;verticalAlign=middle;spacingLeft=4;spacingRight=4;overflow=hidden;points=[[0,0.5],[1,0.5]];portConstraint=eastwest;rotatable=0;whiteSpace=wrap;html=1;" vertex="1" parent="xTbCGkDFSXypvoG6kdAG-57">
          <mxGeometry y="60" width="160" height="30" as="geometry" />
        </mxCell>
        <mxCell id="xTbCGkDFSXypvoG6kdAG-60" value="" style="endArrow=classic;html=1;rounded=0;entryX=1;entryY=0.5;entryDx=0;entryDy=0;exitX=0;exitY=0.5;exitDx=0;exitDy=0;" edge="1" parent="1" source="xTbCGkDFSXypvoG6kdAG-58" target="xTbCGkDFSXypvoG6kdAG-9">
          <mxGeometry width="50" height="50" relative="1" as="geometry">
            <mxPoint x="380" y="-1170" as="sourcePoint" />
            <mxPoint x="430" y="-1220" as="targetPoint" />
            <Array as="points">
              <mxPoint x="370" y="-1095" />
              <mxPoint x="370" y="-1265" />
            </Array>
          </mxGeometry>
        </mxCell>
        <mxCell id="xTbCGkDFSXypvoG6kdAG-61" value="Discounts" style="swimlane;fontStyle=0;childLayout=stackLayout;horizontal=1;startSize=30;horizontalStack=0;resizeParent=1;resizeParentMax=0;resizeLast=0;collapsible=1;marginBottom=0;whiteSpace=wrap;html=1;" vertex="1" parent="1">
          <mxGeometry x="770" y="-1140" width="150" height="180" as="geometry" />
        </mxCell>
        <mxCell id="xTbCGkDFSXypvoG6kdAG-62" value="id [serial]" style="text;strokeColor=none;fillColor=none;align=left;verticalAlign=middle;spacingLeft=4;spacingRight=4;overflow=hidden;points=[[0,0.5],[1,0.5]];portConstraint=eastwest;rotatable=0;whiteSpace=wrap;html=1;" vertex="1" parent="xTbCGkDFSXypvoG6kdAG-61">
          <mxGeometry y="30" width="150" height="30" as="geometry" />
        </mxCell>
        <mxCell id="xTbCGkDFSXypvoG6kdAG-63" value="name [varchar]" style="text;strokeColor=none;fillColor=none;align=left;verticalAlign=middle;spacingLeft=4;spacingRight=4;overflow=hidden;points=[[0,0.5],[1,0.5]];portConstraint=eastwest;rotatable=0;whiteSpace=wrap;html=1;" vertex="1" parent="xTbCGkDFSXypvoG6kdAG-61">
          <mxGeometry y="60" width="150" height="30" as="geometry" />
        </mxCell>
        <mxCell id="xTbCGkDFSXypvoG6kdAG-64" value="percent [int]" style="text;strokeColor=none;fillColor=none;align=left;verticalAlign=middle;spacingLeft=4;spacingRight=4;overflow=hidden;points=[[0,0.5],[1,0.5]];portConstraint=eastwest;rotatable=0;whiteSpace=wrap;html=1;" vertex="1" parent="xTbCGkDFSXypvoG6kdAG-61">
          <mxGeometry y="90" width="150" height="30" as="geometry" />
        </mxCell>
        <mxCell id="xTbCGkDFSXypvoG6kdAG-65" value="start_date [timestamp]" style="text;strokeColor=none;fillColor=none;align=left;verticalAlign=middle;spacingLeft=4;spacingRight=4;overflow=hidden;points=[[0,0.5],[1,0.5]];portConstraint=eastwest;rotatable=0;whiteSpace=wrap;html=1;" vertex="1" parent="xTbCGkDFSXypvoG6kdAG-61">
          <mxGeometry y="120" width="150" height="30" as="geometry" />
        </mxCell>
        <mxCell id="xTbCGkDFSXypvoG6kdAG-66" value="end_date [timestamp]" style="text;strokeColor=none;fillColor=none;align=left;verticalAlign=middle;spacingLeft=4;spacingRight=4;overflow=hidden;points=[[0,0.5],[1,0.5]];portConstraint=eastwest;rotatable=0;whiteSpace=wrap;html=1;" vertex="1" parent="xTbCGkDFSXypvoG6kdAG-61">
          <mxGeometry y="150" width="150" height="30" as="geometry" />
        </mxCell>
        <mxCell id="xTbCGkDFSXypvoG6kdAG-67" value="&lt;span style=&quot;white-space-collapse: preserve;&quot; data-src-align=&quot;0:23&quot; class=&quot;EzKURWReUAB5oZgtQNkl&quot;&gt;ItemsDecommissioning&lt;/span&gt;" style="swimlane;fontStyle=0;childLayout=stackLayout;horizontal=1;startSize=30;horizontalStack=0;resizeParent=1;resizeParentMax=0;resizeLast=0;collapsible=1;marginBottom=0;whiteSpace=wrap;html=1;" vertex="1" parent="1">
          <mxGeometry x="450" y="-970" width="160" height="120" as="geometry">
            <mxRectangle x="120" y="530" width="160" height="30" as="alternateBounds" />
          </mxGeometry>
        </mxCell>
        <mxCell id="xTbCGkDFSXypvoG6kdAG-68" value="id [serial]" style="text;strokeColor=none;fillColor=none;align=left;verticalAlign=middle;spacingLeft=4;spacingRight=4;overflow=hidden;points=[[0,0.5],[1,0.5]];portConstraint=eastwest;rotatable=0;whiteSpace=wrap;html=1;" vertex="1" parent="xTbCGkDFSXypvoG6kdAG-67">
          <mxGeometry y="30" width="160" height="30" as="geometry" />
        </mxCell>
        <mxCell id="xTbCGkDFSXypvoG6kdAG-69" value="item_id [int] UNIQUE" style="text;strokeColor=none;fillColor=none;align=left;verticalAlign=middle;spacingLeft=4;spacingRight=4;overflow=hidden;points=[[0,0.5],[1,0.5]];portConstraint=eastwest;rotatable=0;whiteSpace=wrap;html=1;" vertex="1" parent="xTbCGkDFSXypvoG6kdAG-67">
          <mxGeometry y="60" width="160" height="30" as="geometry" />
        </mxCell>
        <mxCell id="xTbCGkDFSXypvoG6kdAG-70" value="reason [text]" style="text;strokeColor=none;fillColor=none;align=left;verticalAlign=middle;spacingLeft=4;spacingRight=4;overflow=hidden;points=[[0,0.5],[1,0.5]];portConstraint=eastwest;rotatable=0;whiteSpace=wrap;html=1;" vertex="1" parent="xTbCGkDFSXypvoG6kdAG-67">
          <mxGeometry y="90" width="160" height="30" as="geometry" />
        </mxCell>
        <mxCell id="xTbCGkDFSXypvoG6kdAG-71" value="" style="endArrow=classic;html=1;rounded=0;exitX=1;exitY=0.5;exitDx=0;exitDy=0;entryX=0;entryY=0.5;entryDx=0;entryDy=0;" edge="1" parent="1" source="xTbCGkDFSXypvoG6kdAG-59" target="xTbCGkDFSXypvoG6kdAG-62">
          <mxGeometry width="50" height="50" relative="1" as="geometry">
            <mxPoint x="650" y="-1080" as="sourcePoint" />
            <mxPoint x="630" y="-1150" as="targetPoint" />
            <Array as="points">
              <mxPoint x="690" y="-1065" />
              <mxPoint x="690" y="-1095" />
            </Array>
          </mxGeometry>
        </mxCell>
        <mxCell id="xTbCGkDFSXypvoG6kdAG-72" value="" style="endArrow=classic;html=1;rounded=0;entryX=1;entryY=0.5;entryDx=0;entryDy=0;exitX=0;exitY=0.5;exitDx=0;exitDy=0;" edge="1" parent="1" source="xTbCGkDFSXypvoG6kdAG-69" target="xTbCGkDFSXypvoG6kdAG-9">
          <mxGeometry width="50" height="50" relative="1" as="geometry">
            <mxPoint x="370" y="-950" as="sourcePoint" />
            <mxPoint x="420" y="-1000" as="targetPoint" />
            <Array as="points">
              <mxPoint x="370" y="-895" />
              <mxPoint x="370" y="-1265" />
            </Array>
          </mxGeometry>
        </mxCell>
        <mxCell id="xTbCGkDFSXypvoG6kdAG-73" value="Rent" style="swimlane;fontStyle=0;childLayout=stackLayout;horizontal=1;startSize=30;horizontalStack=0;resizeParent=1;resizeParentMax=0;resizeLast=0;collapsible=1;marginBottom=0;whiteSpace=wrap;html=1;" vertex="1" parent="1">
          <mxGeometry x="450" y="-770" width="160" height="240" as="geometry" />
        </mxCell>
        <mxCell id="xTbCGkDFSXypvoG6kdAG-74" value="id [serial]" style="text;strokeColor=none;fillColor=none;align=left;verticalAlign=middle;spacingLeft=4;spacingRight=4;overflow=hidden;points=[[0,0.5],[1,0.5]];portConstraint=eastwest;rotatable=0;whiteSpace=wrap;html=1;" vertex="1" parent="xTbCGkDFSXypvoG6kdAG-73">
          <mxGeometry y="30" width="160" height="30" as="geometry" />
        </mxCell>
        <mxCell id="xTbCGkDFSXypvoG6kdAG-75" value="item_id [int]" style="text;strokeColor=none;fillColor=none;align=left;verticalAlign=middle;spacingLeft=4;spacingRight=4;overflow=hidden;points=[[0,0.5],[1,0.5]];portConstraint=eastwest;rotatable=0;whiteSpace=wrap;html=1;" vertex="1" parent="xTbCGkDFSXypvoG6kdAG-73">
          <mxGeometry y="60" width="160" height="30" as="geometry" />
        </mxCell>
        <mxCell id="xTbCGkDFSXypvoG6kdAG-76" value="customer_id [int]" style="text;strokeColor=none;fillColor=none;align=left;verticalAlign=middle;spacingLeft=4;spacingRight=4;overflow=hidden;points=[[0,0.5],[1,0.5]];portConstraint=eastwest;rotatable=0;whiteSpace=wrap;html=1;" vertex="1" parent="xTbCGkDFSXypvoG6kdAG-73">
          <mxGeometry y="90" width="160" height="30" as="geometry" />
        </mxCell>
        <mxCell id="xTbCGkDFSXypvoG6kdAG-77" value="start_rent_time [timestamp]" style="text;strokeColor=none;fillColor=none;align=left;verticalAlign=middle;spacingLeft=4;spacingRight=4;overflow=hidden;points=[[0,0.5],[1,0.5]];portConstraint=eastwest;rotatable=0;whiteSpace=wrap;html=1;" vertex="1" parent="xTbCGkDFSXypvoG6kdAG-73">
          <mxGeometry y="120" width="160" height="30" as="geometry" />
        </mxCell>
        <mxCell id="xTbCGkDFSXypvoG6kdAG-78" value="end_rent_time [timestamp]" style="text;strokeColor=none;fillColor=none;align=left;verticalAlign=middle;spacingLeft=4;spacingRight=4;overflow=hidden;points=[[0,0.5],[1,0.5]];portConstraint=eastwest;rotatable=0;whiteSpace=wrap;html=1;" vertex="1" parent="xTbCGkDFSXypvoG6kdAG-73">
          <mxGeometry y="150" width="160" height="30" as="geometry" />
        </mxCell>
        <mxCell id="xTbCGkDFSXypvoG6kdAG-79" value="total_payment [decimal]" style="text;strokeColor=none;fillColor=none;align=left;verticalAlign=middle;spacingLeft=4;spacingRight=4;overflow=hidden;points=[[0,0.5],[1,0.5]];portConstraint=eastwest;rotatable=0;whiteSpace=wrap;html=1;" vertex="1" parent="xTbCGkDFSXypvoG6kdAG-73">
          <mxGeometry y="180" width="160" height="30" as="geometry" />
        </mxCell>
        <mxCell id="xTbCGkDFSXypvoG6kdAG-80" value="overdue [boolean]" style="text;strokeColor=none;fillColor=none;align=left;verticalAlign=middle;spacingLeft=4;spacingRight=4;overflow=hidden;points=[[0,0.5],[1,0.5]];portConstraint=eastwest;rotatable=0;whiteSpace=wrap;html=1;" vertex="1" parent="xTbCGkDFSXypvoG6kdAG-73">
          <mxGeometry y="210" width="160" height="30" as="geometry" />
        </mxCell>
        <mxCell id="xTbCGkDFSXypvoG6kdAG-81" value="" style="endArrow=classic;html=1;rounded=0;entryX=1;entryY=0.5;entryDx=0;entryDy=0;exitX=0;exitY=0.5;exitDx=0;exitDy=0;" edge="1" parent="1" source="xTbCGkDFSXypvoG6kdAG-75" target="xTbCGkDFSXypvoG6kdAG-9">
          <mxGeometry width="50" height="50" relative="1" as="geometry">
            <mxPoint x="250" y="-860" as="sourcePoint" />
            <mxPoint x="300" y="-910" as="targetPoint" />
            <Array as="points">
              <mxPoint x="370" y="-695" />
              <mxPoint x="370" y="-1265" />
            </Array>
          </mxGeometry>
        </mxCell>
        <mxCell id="xTbCGkDFSXypvoG6kdAG-82" value="Customers" style="swimlane;fontStyle=0;childLayout=stackLayout;horizontal=1;startSize=30;horizontalStack=0;resizeParent=1;resizeParentMax=0;resizeLast=0;collapsible=1;marginBottom=0;whiteSpace=wrap;html=1;" vertex="1" parent="1">
          <mxGeometry x="770" y="-770" width="150" height="240" as="geometry">
            <mxRectangle x="760" y="-730" width="100" height="30" as="alternateBounds" />
          </mxGeometry>
        </mxCell>
        <mxCell id="xTbCGkDFSXypvoG6kdAG-83" value="id [serial]" style="text;strokeColor=none;fillColor=none;align=left;verticalAlign=middle;spacingLeft=4;spacingRight=4;overflow=hidden;points=[[0,0.5],[1,0.5]];portConstraint=eastwest;rotatable=0;whiteSpace=wrap;html=1;" vertex="1" parent="xTbCGkDFSXypvoG6kdAG-82">
          <mxGeometry y="30" width="150" height="30" as="geometry" />
        </mxCell>
        <mxCell id="xTbCGkDFSXypvoG6kdAG-84" value="firstname [varchar]" style="text;strokeColor=none;fillColor=none;align=left;verticalAlign=middle;spacingLeft=4;spacingRight=4;overflow=hidden;points=[[0,0.5],[1,0.5]];portConstraint=eastwest;rotatable=0;whiteSpace=wrap;html=1;" vertex="1" parent="xTbCGkDFSXypvoG6kdAG-82">
          <mxGeometry y="60" width="150" height="30" as="geometry" />
        </mxCell>
        <mxCell id="xTbCGkDFSXypvoG6kdAG-85" value="lastname [varchar]" style="text;strokeColor=none;fillColor=none;align=left;verticalAlign=middle;spacingLeft=4;spacingRight=4;overflow=hidden;points=[[0,0.5],[1,0.5]];portConstraint=eastwest;rotatable=0;whiteSpace=wrap;html=1;" vertex="1" parent="xTbCGkDFSXypvoG6kdAG-82">
          <mxGeometry y="90" width="150" height="30" as="geometry" />
        </mxCell>
        <mxCell id="xTbCGkDFSXypvoG6kdAG-86" value="phone [varchar]" style="text;strokeColor=none;fillColor=none;align=left;verticalAlign=middle;spacingLeft=4;spacingRight=4;overflow=hidden;points=[[0,0.5],[1,0.5]];portConstraint=eastwest;rotatable=0;whiteSpace=wrap;html=1;" vertex="1" parent="xTbCGkDFSXypvoG6kdAG-82">
          <mxGeometry y="120" width="150" height="30" as="geometry" />
        </mxCell>
        <mxCell id="xTbCGkDFSXypvoG6kdAG-87" value="email [varchar]" style="text;strokeColor=none;fillColor=none;align=left;verticalAlign=middle;spacingLeft=4;spacingRight=4;overflow=hidden;points=[[0,0.5],[1,0.5]];portConstraint=eastwest;rotatable=0;whiteSpace=wrap;html=1;" vertex="1" parent="xTbCGkDFSXypvoG6kdAG-82">
          <mxGeometry y="150" width="150" height="30" as="geometry" />
        </mxCell>
        <mxCell id="xTbCGkDFSXypvoG6kdAG-88" value="address [varchar]" style="text;strokeColor=none;fillColor=none;align=left;verticalAlign=middle;spacingLeft=4;spacingRight=4;overflow=hidden;points=[[0,0.5],[1,0.5]];portConstraint=eastwest;rotatable=0;whiteSpace=wrap;html=1;" vertex="1" parent="xTbCGkDFSXypvoG6kdAG-82">
          <mxGeometry y="180" width="150" height="30" as="geometry" />
        </mxCell>
        <mxCell id="xTbCGkDFSXypvoG6kdAG-89" value="passport [varchar]" style="text;strokeColor=none;fillColor=none;align=left;verticalAlign=middle;spacingLeft=4;spacingRight=4;overflow=hidden;points=[[0,0.5],[1,0.5]];portConstraint=eastwest;rotatable=0;whiteSpace=wrap;html=1;" vertex="1" parent="xTbCGkDFSXypvoG6kdAG-82">
          <mxGeometry y="210" width="150" height="30" as="geometry" />
        </mxCell>
        <mxCell id="xTbCGkDFSXypvoG6kdAG-90" value="" style="endArrow=classic;html=1;rounded=0;exitX=1;exitY=0.5;exitDx=0;exitDy=0;entryX=0;entryY=0.5;entryDx=0;entryDy=0;" edge="1" parent="1" source="xTbCGkDFSXypvoG6kdAG-76" target="xTbCGkDFSXypvoG6kdAG-83">
          <mxGeometry width="50" height="50" relative="1" as="geometry">
            <mxPoint x="680" y="-710" as="sourcePoint" />
            <mxPoint x="730" y="-760" as="targetPoint" />
            <Array as="points">
              <mxPoint x="690" y="-665" />
              <mxPoint x="690" y="-725" />
            </Array>
          </mxGeometry>
        </mxCell>
        <mxCell id="xTbCGkDFSXypvoG6kdAG-91" value="Rent&lt;span style=&quot;background-color: initial;&quot;&gt;History&lt;/span&gt;" style="swimlane;fontStyle=0;childLayout=stackLayout;horizontal=1;startSize=30;horizontalStack=0;resizeParent=1;resizeParentMax=0;resizeLast=0;collapsible=1;marginBottom=0;whiteSpace=wrap;html=1;" vertex="1" parent="1">
          <mxGeometry x="450" y="-450" width="160" height="270" as="geometry" />
        </mxCell>
        <mxCell id="xTbCGkDFSXypvoG6kdAG-92" value="id [serial]" style="text;strokeColor=none;fillColor=none;align=left;verticalAlign=middle;spacingLeft=4;spacingRight=4;overflow=hidden;points=[[0,0.5],[1,0.5]];portConstraint=eastwest;rotatable=0;whiteSpace=wrap;html=1;" vertex="1" parent="xTbCGkDFSXypvoG6kdAG-91">
          <mxGeometry y="30" width="160" height="30" as="geometry" />
        </mxCell>
        <mxCell id="xTbCGkDFSXypvoG6kdAG-93" value="item_id [int]" style="text;strokeColor=none;fillColor=none;align=left;verticalAlign=middle;spacingLeft=4;spacingRight=4;overflow=hidden;points=[[0,0.5],[1,0.5]];portConstraint=eastwest;rotatable=0;whiteSpace=wrap;html=1;" vertex="1" parent="xTbCGkDFSXypvoG6kdAG-91">
          <mxGeometry y="60" width="160" height="30" as="geometry" />
        </mxCell>
        <mxCell id="xTbCGkDFSXypvoG6kdAG-106" value="warehouse_rent_id [int]" style="text;strokeColor=none;fillColor=none;align=left;verticalAlign=middle;spacingLeft=4;spacingRight=4;overflow=hidden;points=[[0,0.5],[1,0.5]];portConstraint=eastwest;rotatable=0;whiteSpace=wrap;html=1;" vertex="1" parent="xTbCGkDFSXypvoG6kdAG-91">
          <mxGeometry y="90" width="160" height="30" as="geometry" />
        </mxCell>
        <mxCell id="xTbCGkDFSXypvoG6kdAG-94" value="customer_id [int]" style="text;strokeColor=none;fillColor=none;align=left;verticalAlign=middle;spacingLeft=4;spacingRight=4;overflow=hidden;points=[[0,0.5],[1,0.5]];portConstraint=eastwest;rotatable=0;whiteSpace=wrap;html=1;" vertex="1" parent="xTbCGkDFSXypvoG6kdAG-91">
          <mxGeometry y="120" width="160" height="30" as="geometry" />
        </mxCell>
        <mxCell id="xTbCGkDFSXypvoG6kdAG-95" value="start_rent_time [timestamp]" style="text;strokeColor=none;fillColor=none;align=left;verticalAlign=middle;spacingLeft=4;spacingRight=4;overflow=hidden;points=[[0,0.5],[1,0.5]];portConstraint=eastwest;rotatable=0;whiteSpace=wrap;html=1;" vertex="1" parent="xTbCGkDFSXypvoG6kdAG-91">
          <mxGeometry y="150" width="160" height="30" as="geometry" />
        </mxCell>
        <mxCell id="xTbCGkDFSXypvoG6kdAG-96" value="end_rent_time [timestamp]" style="text;strokeColor=none;fillColor=none;align=left;verticalAlign=middle;spacingLeft=4;spacingRight=4;overflow=hidden;points=[[0,0.5],[1,0.5]];portConstraint=eastwest;rotatable=0;whiteSpace=wrap;html=1;" vertex="1" parent="xTbCGkDFSXypvoG6kdAG-91">
          <mxGeometry y="180" width="160" height="30" as="geometry" />
        </mxCell>
        <mxCell id="xTbCGkDFSXypvoG6kdAG-97" value="overdue_rent_days [int]" style="text;strokeColor=none;fillColor=none;align=left;verticalAlign=middle;spacingLeft=4;spacingRight=4;overflow=hidden;points=[[0,0.5],[1,0.5]];portConstraint=eastwest;rotatable=0;whiteSpace=wrap;html=1;" vertex="1" parent="xTbCGkDFSXypvoG6kdAG-91">
          <mxGeometry y="210" width="160" height="30" as="geometry" />
        </mxCell>
        <mxCell id="xTbCGkDFSXypvoG6kdAG-98" value="total_payment [decimal]" style="text;strokeColor=none;fillColor=none;align=left;verticalAlign=middle;spacingLeft=4;spacingRight=4;overflow=hidden;points=[[0,0.5],[1,0.5]];portConstraint=eastwest;rotatable=0;whiteSpace=wrap;html=1;" vertex="1" parent="xTbCGkDFSXypvoG6kdAG-91">
          <mxGeometry y="240" width="160" height="30" as="geometry" />
        </mxCell>
        <mxCell id="xTbCGkDFSXypvoG6kdAG-99" value="" style="endArrow=classic;html=1;rounded=0;entryX=0;entryY=0.5;entryDx=0;entryDy=0;exitX=1;exitY=0.5;exitDx=0;exitDy=0;" edge="1" parent="1" source="xTbCGkDFSXypvoG6kdAG-94" target="xTbCGkDFSXypvoG6kdAG-83">
          <mxGeometry width="50" height="50" relative="1" as="geometry">
            <mxPoint x="710" y="-540" as="sourcePoint" />
            <mxPoint x="760" y="-590" as="targetPoint" />
            <Array as="points">
              <mxPoint x="690" y="-315" />
              <mxPoint x="690" y="-725" />
            </Array>
          </mxGeometry>
        </mxCell>
        <mxCell id="xTbCGkDFSXypvoG6kdAG-100" value="" style="endArrow=classic;html=1;rounded=0;exitX=0;exitY=0.5;exitDx=0;exitDy=0;entryX=1;entryY=0.5;entryDx=0;entryDy=0;" edge="1" parent="1" source="xTbCGkDFSXypvoG6kdAG-93" target="xTbCGkDFSXypvoG6kdAG-9">
          <mxGeometry width="50" height="50" relative="1" as="geometry">
            <mxPoint x="250" y="-640" as="sourcePoint" />
            <mxPoint x="300" y="-690" as="targetPoint" />
            <Array as="points">
              <mxPoint x="370" y="-375" />
              <mxPoint x="370" y="-1265" />
            </Array>
          </mxGeometry>
        </mxCell>
        <mxCell id="xTbCGkDFSXypvoG6kdAG-101" value="ItemsServiceHistoryInfo" style="swimlane;fontStyle=0;childLayout=stackLayout;horizontal=1;startSize=30;horizontalStack=0;resizeParent=1;resizeParentMax=0;resizeLast=0;collapsible=1;marginBottom=0;whiteSpace=wrap;html=1;" vertex="1" parent="1">
          <mxGeometry x="770" y="-1570" width="150" height="120" as="geometry" />
        </mxCell>
        <mxCell id="xTbCGkDFSXypvoG6kdAG-102" value="id [serial]" style="text;strokeColor=none;fillColor=none;align=left;verticalAlign=middle;spacingLeft=4;spacingRight=4;overflow=hidden;points=[[0,0.5],[1,0.5]];portConstraint=eastwest;rotatable=0;whiteSpace=wrap;html=1;" vertex="1" parent="xTbCGkDFSXypvoG6kdAG-101">
          <mxGeometry y="30" width="150" height="30" as="geometry" />
        </mxCell>
        <mxCell id="xTbCGkDFSXypvoG6kdAG-46" value="changed_by [varchar]" style="text;strokeColor=none;fillColor=none;align=left;verticalAlign=middle;spacingLeft=4;spacingRight=4;overflow=hidden;points=[[0,0.5],[1,0.5]];portConstraint=eastwest;rotatable=0;whiteSpace=wrap;html=1;" vertex="1" parent="xTbCGkDFSXypvoG6kdAG-101">
          <mxGeometry y="60" width="150" height="30" as="geometry" />
        </mxCell>
        <mxCell id="xTbCGkDFSXypvoG6kdAG-47" value="changed_at [timestamp]" style="text;strokeColor=none;fillColor=none;align=left;verticalAlign=middle;spacingLeft=4;spacingRight=4;overflow=hidden;points=[[0,0.5],[1,0.5]];portConstraint=eastwest;rotatable=0;whiteSpace=wrap;html=1;" vertex="1" parent="xTbCGkDFSXypvoG6kdAG-101">
          <mxGeometry y="90" width="150" height="30" as="geometry" />
        </mxCell>
        <mxCell id="xTbCGkDFSXypvoG6kdAG-105" value="" style="endArrow=classic;startArrow=classic;html=1;rounded=0;exitX=1;exitY=0.5;exitDx=0;exitDy=0;entryX=0;entryY=0.5;entryDx=0;entryDy=0;" edge="1" parent="1" source="xTbCGkDFSXypvoG6kdAG-41" target="xTbCGkDFSXypvoG6kdAG-102">
          <mxGeometry width="50" height="50" relative="1" as="geometry">
            <mxPoint x="670" y="-1550" as="sourcePoint" />
            <mxPoint x="720" y="-1600" as="targetPoint" />
          </mxGeometry>
        </mxCell>
        <mxCell id="xTbCGkDFSXypvoG6kdAG-107" value="" style="endArrow=classic;html=1;rounded=0;exitX=0;exitY=0.5;exitDx=0;exitDy=0;entryX=1;entryY=0.5;entryDx=0;entryDy=0;" edge="1" parent="1" source="xTbCGkDFSXypvoG6kdAG-106" target="xTbCGkDFSXypvoG6kdAG-3">
          <mxGeometry width="50" height="50" relative="1" as="geometry">
            <mxPoint x="40" y="-530" as="sourcePoint" />
            <mxPoint x="90" y="-580" as="targetPoint" />
            <Array as="points">
              <mxPoint x="50" y="-345" />
              <mxPoint x="50" y="-1235" />
            </Array>
          </mxGeometry>
        </mxCell>
      </root>
    </mxGraphModel>
  </diagram>
</mxfile>
